<?xml version="1.0" encoding="UTF-8"?>
<!DOCTYPE svg PUBLIC "-//W3C//DTD SVG 1.1//EN" "http://www.w3.org/Graphics/SVG/1.1/DTD/svg11.dtd">
<!-- Creator: CorelDRAW Home & Student X7 -->
<?xml-stylesheet href="previous.css" type="text/css"?>
<svg xmlns="http://www.w3.org/2000/svg" xml:space="preserve" width="2480px" height="3508px" version="1.1" style="shape-rendering:geometricPrecision; text-rendering:geometricPrecision; image-rendering:optimizeQuality; fill-rule:evenodd; clip-rule:evenodd"
viewBox="0 0 2480 3507"
 xmlns:xlink="http://www.w3.org/1999/xlink">
 <g id="Warstwa_x0020_1">
  <metadata id="CorelCorpID_0Corel-Layer"/>
  <g id="_289528584">
   <g>
    <path class="fil0" d="M551 1850l1104 1104c25,26 59,40 96,40 36,0 70,-14 96,-40l81 -81c53,-53 53,-139 0,-192l-927 -927 928 -928c25,-25 39,-59 39,-95 0,-37 -14,-71 -39,-96l-81 -82c-26,-25 -60,-39 -96,-39 -37,0 -71,14 -96,39l-1105 1105c-26,26 -40,60 -39,96 -1,37 13,71 39,96z"/>
   </g>
  </g>
  <g id="_289525944">
  </g>
  <g id="_289526328">
  </g>
  <g id="_289526040">
  </g>
  <g id="_289526424">
  </g>
  <g id="_289526016">
  </g>
  <g id="_287942184">
  </g>
  <g id="_287942040">
  </g>
  <g id="_287970504">
  </g>
  <g id="_287945592">
  </g>
  <g id="_287945280">
  </g>
  <g id="_287944992">
  </g>
  <g id="_287945184">
  </g>
  <g id="_287944752">
  </g>
  <g id="_287944224">
  </g>
  <g id="_287944632">
  </g>
 </g>
</svg>
