<svg height="512pt" viewBox="0 -67 512.16588 512" width="512pt" xmlns="http://www.w3.org/2000/svg"><path d="m399.757812 258.226562c41.308594-34.355468 72.628907-79.015624 98.738282-118.195312 2.492187-3.683594 4.792968-7.492188 6.886718-11.417969 2.613282-4.664062 4.621094-9.648437 5.972657-14.820312 1.25-4.953125 1.050781-10.160157-.570313-15 0-.054688 0-.105469 0-.164063s-.058594-.085937-.078125-.136718c-.101562-.265626-.152343-.554688-.253906-.851563-2.34375-5.367187-6.46875-9.757813-11.675781-12.433594-9.003906-4.066406-18.851563-5.917969-28.722656-5.410156h-1.363282c-28.699218.117187-57.335937 2.730469-85.582031 7.808594-23.125 3.96875-46.472656 6.511719-69.914063 7.617187-21.96875.828125-43.953124-1.242187-65.382812-6.160156-7.140625-1.707031-14.230469-3.652344-21.332031-5.597656-7.585938-2.066406-15.316407-4.164063-23.167969-6.015625-16.1875-21.050781-65.203125-77.347657-128.066406-77.347657-36.117188-.835937-67.550782 24.539063-74.351563 60.015626-3.082031 18.015624-4.445312 79.863281 107.65625 119.46875.1875.066406.375.050781.5625.101562 3.09375 8.507812 7.195313 16.621094 12.210938 24.15625 16.339843 24.8125 37.484375 46.09375 62.191406 62.59375 2.039063 1.332031 4.265625 2.464844 6.375 3.738281-3.039063 5.261719-4.90625 11.125-5.472656 17.175781-24.378907 9.746094-37.851563 23.039063-37.851563 37.957032 0 34.925781 70.449219 53.761718 136.746094 53.761718s136.730469-18.808593 136.730469-53.796874c0-14.898438-13.464844-28.210938-37.855469-37.964844-.410156-4.621094-2.0625-9.042969-4.785156-12.800782 7.8125-4.910156 15.28125-10.351562 22.355468-16.28125zm-155.980468-152.550781c22.871094 5.285157 46.34375 7.511719 69.804687 6.625 24.144531-1.117187 48.195313-3.722656 72.019531-7.800781 27.277344-4.871094 54.917969-7.425781 82.628907-7.628906h1.390625c4.933594-.023438 9.863281.402344 14.71875 1.269531-35.296875 11.964844-69.835938 26.058594-103.421875 42.207031-45.226563-9.242187-148.480469-27.230468-209.742188-13.457031-12.714843-8.605469-22.789062-20.574219-29.089843-34.578125 12.003906-3.589844 24.679687-4.320312 37.019531-2.132812 14.464843 2.363281 28.765625 5.640624 42.816406 9.816406 7.273437 1.945312 14.535156 3.921875 21.855469 5.679687zm108.554687 46.585938c-51.992187 12.03125-106.40625 8.050781-156.09375-11.417969-.390625-.171875-.808593-.394531-1.210937-.570312 48.324218-5.035157 113.636718 4.09375 157.304687 11.988281zm-239.941406-58.242188c-6.082031 9.25-9.675781 19.910157-10.4375 30.953125-39.703125-17.921875-51.550781-39.042968-48.835937-53.554687 2.058593-10.570313 11.363281-18.160157 22.128906-18.058594 19.15625 0 39.199218 15.453125 51.769531 27.308594-.464844.226562-.90625.5-1.320313.808593-5.226562 3.253907-9.75 7.519532-13.304687 12.542969zm-94.667969-31.015625c5.410156-27.277344 29.726563-46.652344 57.523438-45.835937 43.988281 0 81.175781 32.625 101.972656 55.664062-10.875-1.402343-21.90625-1.023437-32.65625 1.128907-15.132812-15.523438-41.566406-37.667969-69.316406-37.667969-18.972656-.105469-35.324219 13.324219-38.90625 31.957031-1.988282 10.648438-2.746094 46.890625 65.332031 75.09375.078125 1.339844.144531 2.695312.246094 3.941406.363281 4.085938.933593 8.152344 1.707031 12.179688-60.277344-23.808594-92.261719-59.394532-85.902344-96.460938zm117.757813 131.308594c-9.582031-14.425781-15.277344-31.082031-16.527344-48.359375-1.511719-19.316406.851563-32.730469 7.457031-42.210937.394532-.566407.914063-.964844 1.339844-1.496094 8.351562 16.789062 21.152344 30.957031 37.007812 40.960937.105469.066407.1875.152344.292969.214844 7.746094 5.070313 15.925781 9.457031 24.4375 13.105469 33.21875 13.417968 68.769531 20.113281 104.59375 19.703125 28.597657.992187 57.074219-4.179688 83.5-15.164063 37.511719-18.691406 76.289063-34.722656 116.050781-47.972656-.941406 2.601562-2.054687 5.140625-3.335937 7.59375-1.816406 3.402344-3.8125 6.710938-5.972656 9.90625-25.445313 38.171875-55.902344 81.640625-95.453125 114.542969-12.6875 11.296875-27.367188 20.132812-43.289063 26.054687-45.640625 15.332032-95.546875 11.507813-138.320312-10.589844-.28125-.144531-.527344-.324218-.851563-.472656-.078125 0-.152344-.101562-.230468-.132812-4.582032-2.433594-9.085938-5.027344-13.335938-7.808594-22.796875-15.269531-42.308594-34.949219-57.378906-57.875zm267.496093 130.960938c0 15.359374-45.527343 36.695312-119.671874 36.695312-74.148438 0-119.679688-21.335938-119.679688-36.695312 0-6.824219 9.804688-15.007813 25.523438-21.554688 14.097656 20.601562 56.609374 30.089844 94.136718 30.089844 37.53125 0 80.0625-9.5 94.148438-30.0625 15.738281 6.550781 25.542968 14.703125 25.542968 21.527344zm-37.769531-36.179688c-.003906.59375-.078125 1.183594-.230469 1.757812-2.859374 10.855469-32.835937 25.890626-81.691406 25.890626-48.851562 0-78.835937-15.035157-81.703125-25.925782-.136719-.558594-.210937-1.132812-.214843-1.707031.335937-3.792969 1.539062-7.457031 3.515624-10.707031 45.6875 21.875 98.097657 25.089844 146.117188 8.957031 3.824219-1.292969 7.574219-2.796875 11.238281-4.496094 1.699219 1.65625 2.753907 3.867188 2.96875 6.230469zm0 0"/><path d="m247.617188 249.328125c4.429687-.015625 8.109374-3.421875 8.472656-7.835937.363281-4.414063-2.714844-8.375-7.082032-9.113282-47.222656-7.875-79.75-47.726562-80.074218-48.117187-2.96875-3.601563-8.277344-4.152344-11.921875-1.234375-3.640625 2.914062-4.265625 8.21875-1.402344 11.898437 1.488281 1.84375 36.789063 45.324219 90.601563 54.28125.464843.082031.933593.121094 1.40625.121094zm0 0"/><path d="m290.285156 249.328125c0 4.710937-3.820312 8.53125-8.535156 8.53125-4.710938 0-8.53125-3.820313-8.53125-8.53125 0-4.714844 3.820312-8.535156 8.53125-8.535156 4.714844 0 8.535156 3.820312 8.535156 8.535156zm0 0"/></svg>